<?xml version="1.0" standalone="no"?>
<!DOCTYPE svg PUBLIC "-//W3C//DTD SVG 20010904//EN"
 "http://www.w3.org/TR/2001/REC-SVG-20010904/DTD/svg10.dtd">
<svg version="1.0" xmlns="http://www.w3.org/2000/svg"
 width="1024.000000pt" height="1024.000000pt" viewBox="0 0 1024.000000 1024.000000"
 preserveAspectRatio="xMidYMid meet">
<metadata>
Created by potrace 1.11, written by Peter Selinger 2001-2013
</metadata>
<g transform="translate(0.000000,1024.000000) scale(0.100000,-0.100000)"
fill="#000000" stroke="none">
<path d="M7609 8346 c-2 -2 -33 -7 -69 -11 -36 -4 -74 -9 -85 -11 -10 -2 -37
-6 -60 -9 -61 -9 -221 -52 -300 -81 -436 -162 -748 -517 -874 -994 -60 -228
-82 -398 -84 -635 -1 -108 10 -311 18 -356 3 -12 7 -44 10 -70 15 -133 93
-407 155 -544 189 -422 531 -831 1125 -1351 194 -169 459 -446 598 -624 44
-56 113 -170 150 -246 113 -230 158 -448 151 -739 -6 -327 -96 -516 -289 -611
-95 -46 -182 -62 -313 -58 -59 1 -118 5 -131 8 -225 50 -363 202 -410 451 -18
92 -19 110 -20 428 l-1 297 -532 -2 -533 -3 1 -260 c0 -234 8 -448 18 -501 2
-10 7 -44 11 -74 26 -206 100 -445 191 -617 212 -403 583 -656 1069 -727 22
-4 54 -9 70 -11 88 -14 387 -21 495 -11 113 11 168 18 242 32 493 93 850 354
1057 772 40 80 107 250 114 293 3 13 14 60 25 104 27 105 41 200 58 385 12
140 6 465 -11 585 -9 63 -16 111 -21 145 -2 19 -9 50 -14 70 -5 19 -11 46 -14
60 -19 110 -92 325 -154 460 -160 344 -537 792 -1002 1190 -203 173 -489 457
-615 611 -214 259 -329 506 -363 779 -9 72 -8 280 2 350 44 326 221 496 524
504 269 7 448 -99 530 -314 32 -84 44 -142 58 -280 1 -14 2 -127 3 -253 l1
-227 532 2 532 3 0 190 c-1 172 -10 390 -18 455 -50 362 -132 606 -281 830
-197 297 -495 494 -862 571 -53 11 -115 22 -137 25 -23 3 -52 8 -66 11 -29 6
-475 14 -481 9z"/>
<path d="M800 4665 l0 -3585 490 0 c385 0 490 3 491 13 0 6 1 1228 1 2715 1
1889 4 2702 12 2699 6 -2 16 -41 23 -88 7 -46 19 -129 28 -184 8 -55 18 -118
21 -140 3 -22 7 -51 9 -65 15 -91 45 -293 50 -335 4 -27 8 -57 10 -65 2 -13 6
-38 21 -135 3 -16 7 -41 9 -55 2 -14 9 -61 15 -105 7 -44 14 -87 15 -96 2 -9
6 -40 10 -70 4 -30 8 -56 10 -59 2 -3 6 -34 10 -70 3 -35 8 -67 10 -70 2 -3 6
-30 10 -60 3 -30 13 -98 21 -150 9 -52 17 -111 20 -130 2 -19 9 -60 14 -90 5
-30 12 -71 14 -90 3 -19 9 -64 15 -100 10 -63 14 -93 26 -175 3 -22 10 -65 15
-95 5 -30 12 -77 16 -105 3 -27 8 -59 10 -70 2 -10 6 -37 9 -60 3 -22 12 -80
20 -130 8 -49 17 -110 20 -135 4 -25 20 -130 36 -235 16 -104 32 -210 35 -235
3 -25 7 -52 9 -60 2 -8 7 -37 10 -65 4 -27 9 -63 11 -80 12 -76 15 -92 19
-115 2 -14 7 -45 10 -70 3 -25 10 -72 15 -105 5 -33 12 -78 15 -100 4 -22 8
-51 10 -64 2 -13 7 -45 10 -70 4 -25 13 -84 21 -131 7 -47 16 -103 19 -125 5
-36 17 -113 20 -125 1 -3 5 -31 9 -64 4 -32 9 -68 11 -80 2 -11 6 -37 9 -56 3
-19 15 -98 26 -175 12 -77 23 -156 26 -175 3 -19 9 -60 14 -90 6 -30 12 -68
14 -85 2 -16 9 -67 16 -113 l12 -82 469 0 c367 0 471 3 474 13 3 9 74 471 100
652 3 17 16 107 30 200 15 94 29 186 31 205 3 19 10 64 16 100 5 36 11 76 13
90 3 27 43 290 50 330 4 27 16 102 70 468 19 128 37 245 40 260 3 15 7 47 11
72 3 25 7 52 9 60 3 8 7 40 10 70 3 30 8 62 10 70 2 8 7 33 10 55 3 23 7 51
10 64 2 13 7 49 10 80 4 31 8 63 10 71 3 8 11 65 20 125 9 61 18 122 21 138
11 70 13 85 19 127 3 25 8 52 10 60 2 8 6 38 10 65 3 28 10 75 15 105 5 30 12
73 14 95 3 22 14 99 25 170 12 72 23 146 26 165 4 19 8 53 11 75 3 22 12 78
19 125 8 47 17 105 20 130 3 25 12 86 20 135 8 50 17 108 20 130 3 23 7 52 10
65 2 13 9 58 15 99 6 42 12 87 15 101 2 14 14 89 25 166 11 78 22 151 24 161
3 11 7 44 11 74 4 30 8 56 10 59 2 3 6 32 10 65 9 87 19 126 30 123 6 -2 10
-929 10 -2708 l0 -2705 533 -3 532 -2 0 3585 0 3585 -805 0 c-760 0 -805 -1
-806 -17 0 -10 -2 -27 -4 -38 -2 -11 -7 -40 -10 -65 -3 -25 -8 -56 -10 -70 -4
-24 -22 -158 -30 -221 -2 -17 -6 -42 -9 -57 -3 -15 -8 -52 -11 -82 -3 -30 -8
-64 -10 -75 -2 -11 -7 -42 -10 -70 -3 -27 -15 -109 -25 -181 -11 -72 -22 -148
-24 -170 -3 -21 -10 -73 -16 -114 -5 -41 -13 -93 -16 -115 -3 -22 -7 -51 -9
-65 -2 -14 -16 -108 -30 -210 -14 -102 -27 -196 -29 -210 -3 -14 -7 -47 -11
-75 -3 -27 -8 -61 -10 -75 -2 -14 -11 -74 -19 -135 -16 -113 -18 -127 -36
-255 -6 -41 -13 -93 -15 -115 -3 -22 -10 -67 -15 -100 -5 -33 -12 -82 -15
-110 -3 -27 -7 -57 -10 -65 -2 -8 -7 -40 -10 -70 -3 -30 -7 -66 -10 -80 -2
-14 -9 -61 -15 -106 -6 -44 -12 -89 -14 -100 -2 -10 -7 -41 -10 -69 -4 -27 -9
-61 -11 -75 -2 -14 -6 -47 -9 -75 -4 -27 -9 -61 -11 -75 -3 -14 -7 -41 -9 -60
-5 -45 -36 -266 -42 -305 -8 -55 -14 -90 -18 -125 -3 -19 -10 -72 -16 -117 -6
-46 -13 -95 -15 -110 -4 -33 -13 -96 -25 -178 -5 -33 -12 -80 -15 -105 -3 -25
-8 -63 -11 -85 -3 -22 -7 -49 -9 -60 -19 -138 -27 -194 -30 -215 -3 -14 -7
-50 -10 -80 -4 -30 -8 -62 -10 -70 -2 -8 -7 -37 -10 -65 -4 -27 -8 -61 -11
-75 -2 -14 -6 -50 -10 -80 -7 -61 -10 -68 -23 -54 -9 8 -14 35 -26 129 -9 72
-25 191 -30 215 -2 13 -7 46 -10 74 -3 28 -7 62 -10 76 -7 43 -31 212 -40 285
-3 28 -8 61 -10 75 -3 14 -7 42 -10 63 -3 20 -7 54 -10 75 -3 20 -7 48 -10 62
-2 14 -7 48 -10 75 -3 28 -21 160 -40 295 -19 135 -37 263 -40 286 -3 22 -8
52 -10 65 -4 23 -23 162 -31 224 -2 17 -6 46 -9 65 -3 19 -8 50 -10 68 -8 64
-26 189 -29 208 -2 10 -7 44 -10 75 -4 31 -9 67 -11 79 -2 12 -7 48 -11 79 -3
31 -8 63 -9 71 -3 17 -23 155 -30 210 -3 19 -7 46 -10 60 -2 14 -7 48 -10 75
-3 28 -19 143 -35 257 -17 113 -32 228 -35 255 -3 26 -8 59 -10 73 -8 41 -13
77 -35 240 -12 85 -24 169 -26 185 -2 17 -7 50 -10 75 -4 25 -8 52 -9 60 -1 8
-5 42 -10 75 -4 33 -9 69 -11 80 -2 11 -7 45 -10 75 -3 30 -7 57 -9 60 -2 3
-6 34 -10 70 -4 36 -10 83 -15 105 -4 22 -8 47 -8 55 1 8 -2 31 -5 50 -3 19
-13 87 -22 150 -9 63 -18 125 -20 136 -2 12 -6 47 -10 78 l-7 56 -804 0 -804
0 0 -3585z"/>
</g>
</svg>
